<?xml version="1.0" standalone="no"?>
<!DOCTYPE svg PUBLIC "-//W3C//DTD SVG 20010904//EN"
 "http://www.w3.org/TR/2001/REC-SVG-20010904/DTD/svg10.dtd">
<svg version="1.0" xmlns="http://www.w3.org/2000/svg"
 width="312.000000pt" height="69.000000pt" viewBox="0 0 312.000000 69.000000"
 preserveAspectRatio="xMidYMid meet">

<g transform="translate(0.000000,69.000000) scale(0.100000,-0.100000)"
fill="#000000" stroke="none">
<path d="M244 644 c-92 -61 -107 -75 -95 -87 7 -7 18 -1 31 16 12 15 25 27 30
27 4 0 32 16 61 35 76 50 106 53 171 19 29 -15 75 -45 101 -67 27 -22 51 -37
54 -33 10 9 -14 31 -92 85 -68 47 -78 51 -133 51 -54 0 -66 -4 -128 -46z"/>
<path d="M340 640 c0 -5 5 -10 10 -10 6 0 10 5 10 10 0 6 -4 10 -10 10 -5 0
-10 -4 -10 -10z"/>
<path d="M365 621 c-3 -5 -1 -12 5 -16 5 -3 10 1 10 9 0 18 -6 21 -15 7z"/>
<path d="M428 593 c7 -3 16 -2 19 1 4 3 -2 6 -13 5 -11 0 -14 -3 -6 -6z"/>
<path d="M325 569 c-10 -15 3 -25 16 -12 7 7 7 13 1 17 -6 3 -14 1 -17 -5z"/>
<path d="M386 572 c-3 -6 -1 -14 5 -17 15 -10 25 3 12 16 -7 7 -13 7 -17 1z"/>
<path d="M476 571 c-4 -7 -5 -15 -2 -18 9 -9 19 4 14 18 -4 11 -6 11 -12 0z"/>
<path d="M250 560 c0 -5 5 -10 10 -10 6 0 10 5 10 10 0 6 -4 10 -10 10 -5 0
-10 -4 -10 -10z"/>
<path d="M690 526 c0 -18 -7 -46 -15 -62 -15 -29 -14 -29 -30 21 -9 30 -25 14
-25 -25 0 -23 -5 -40 -11 -40 -8 0 -8 -4 0 -14 9 -11 7 -15 -10 -19 -11 -3
-19 -3 -16 0 3 2 -1 12 -8 21 -8 10 -23 28 -34 42 -23 29 -38 22 -21 -10 6
-12 9 -24 7 -27 -8 -8 -77 41 -83 60 -3 9 -9 17 -14 17 -17 0 -19 -17 -5 -36
8 -10 14 -37 15 -59 l0 -40 -24 30 c-17 20 -28 27 -35 20 -7 -7 0 -24 20 -55
17 -25 25 -46 20 -48 -14 -5 -14 -32 -1 -32 9 0 43 -64 44 -85 1 -5 9 -16 19
-23 9 -7 17 -22 17 -32 0 -11 12 -24 30 -32 16 -7 30 -16 30 -20 0 -7 54 -3
68 6 4 2 20 -15 36 -40 39 -62 56 -58 56 11 0 54 1 56 30 62 51 10 60 34 60
160 0 69 -4 113 -10 113 -5 0 -10 25 -10 55 0 56 -16 77 -22 28 -7 -61 -48
-17 -48 52 0 24 -5 35 -15 35 -10 0 -15 -10 -15 -34z m22 -101 c-12 -22 -27
-2 -18 22 5 12 10 13 17 6 7 -7 8 -17 1 -28z m-32 -26 c18 -32 6 -45 -18 -21
-12 12 -22 27 -22 32 0 18 29 10 40 -11z m90 11 c0 -5 -10 -20 -22 -32 -24
-24 -36 -11 -18 21 11 21 40 29 40 11z m-270 -43 c0 -20 -25 1 -28 24 -2 23
-2 23 13 5 8 -11 15 -24 15 -29z m47 -24 c-7 -16 -13 -20 -18 -11 -4 7 -6 15
-5 18 2 3 6 14 10 25 6 15 9 17 16 6 5 -8 4 -24 -3 -38z m50 -77 c1 -52 4 -99
7 -105 6 -9 -46 -6 -81 5 -25 7 -13 24 17 24 46 0 36 18 -12 22 -52 4 -61 24
-13 30 26 3 39 0 45 -11 14 -25 24 -3 12 24 -17 36 -15 65 5 87 9 10 17 18 18
18 1 0 2 -42 2 -94z m80 67 c14 -22 14 -22 -16 -10 -37 14 -51 40 -20 35 12
-2 28 -13 36 -25z m107 14 c-2 -7 -18 -18 -34 -24 -31 -12 -32 -7 -7 25 13 16
48 16 41 -1z m-293 -17 l24 -19 -25 -1 c-25 0 -50 16 -50 32 0 15 27 8 51 -12z
m176 -45 l28 -25 -30 6 c-28 7 -45 20 -45 37 0 14 19 7 47 -18z m123 18 c0
-17 -17 -30 -45 -37 l-30 -6 28 25 c28 25 47 32 47 18z m-282 -22 c10 -6 8 -9
-10 -13 -28 -5 -48 0 -48 13 0 11 40 12 58 0z m167 -54 c23 -32 18 -39 -12
-20 -45 28 -58 55 -23 46 11 -3 27 -15 35 -26z m110 12 c-5 -14 -65 -53 -65
-43 0 16 24 46 43 53 26 10 29 9 22 -10z m-105 -73 c0 -3 3 -11 6 -20 10 -26
-22 -19 -45 10 -29 37 -26 47 9 29 17 -9 30 -17 30 -19z m110 16 c0 -14 -40
-52 -55 -52 -21 0 -19 16 5 40 20 20 50 27 50 12z m-186 -58 c9 -3 16 -10 16
-15 0 -14 -42 -10 -70 6 l-25 14 32 1 c17 0 38 -3 47 -6z m86 -37 c0 -11 -1
-18 -3 -16 -1 2 -10 14 -21 26 -17 21 -17 21 3 16 13 -3 21 -13 21 -26z"/>
<path d="M48 519 c-21 -12 -25 -78 -6 -97 8 -8 59 -12 165 -12 129 0 153 2
153 15 0 13 -25 15 -157 17 -105 1 -137 3 -95 7 82 8 85 25 5 29 -35 2 -63 7
-63 12 0 6 110 10 281 10 220 0 280 3 277 13 -6 16 -534 22 -560 6z"/>
<path d="M200 465 c0 -9 5 -15 11 -13 6 2 11 8 11 13 0 5 -5 11 -11 13 -6 2
-11 -4 -11 -13z"/>
<path d="M250 465 c0 -13 11 -15 65 -13 87 4 88 22 3 26 -57 2 -68 0 -68 -13z"/>
<path d="M2350 280 c0 -113 1 -120 20 -120 18 0 20 7 20 54 0 72 6 86 41 86
28 0 28 -1 31 -67 3 -62 5 -68 26 -71 21 -3 22 0 22 63 0 57 -3 69 -26 92 -21
21 -32 24 -60 20 -33 -6 -34 -5 -34 29 0 27 -4 34 -20 34 -19 0 -20 -7 -20
-120z m19 -51 c-5 -51 -6 -41 -6 51 0 77 2 98 6 64 3 -28 3 -79 0 -115z m89
95 c12 -4 22 -10 22 -16 0 -5 -9 -4 -20 2 -12 6 -31 8 -43 5 -17 -5 -19 -4 -7
4 18 12 18 13 48 5z m29 -116 c-2 -18 -4 -6 -4 27 0 33 2 48 4 33 2 -15 2 -42
0 -60z"/>
<path d="M53 378 c-4 -7 -9 -76 -11 -153 -2 -77 -4 -153 -5 -169 -2 -29 -1
-30 68 -42 74 -13 410 -18 489 -8 27 4 46 12 46 19 0 15 -48 26 -56 13 -4 -6
-19 -7 -35 -4 -15 3 -31 1 -34 -4 -5 -8 -35 -11 -135 -12 -68 0 -196 11 -258
23 -46 10 -61 16 -57 27 8 21 11 322 3 322 -4 0 -10 -6 -15 -12z"/>
<path d="M975 375 c-22 -8 -41 -15 -43 -15 -2 0 -10 -16 -18 -36 -20 -47 -9
-97 28 -134 25 -26 37 -30 83 -30 80 0 85 4 85 66 l0 54 -50 0 c-53 0 -70 -16
-22 -22 21 -2 28 -9 30 -30 3 -27 2 -28 -42 -28 -35 0 -48 5 -60 22 -31 44
-10 127 32 129 14 0 13 2 -3 9 -14 6 -5 9 35 9 36 0 48 -3 36 -8 -19 -7 -19
-8 2 -13 12 -4 25 -2 28 4 18 28 -64 44 -121 23z m-24 -41 c-23 -30 -27 -74
-9 -107 10 -20 10 -21 -5 -8 -33 26 -13 141 24 141 6 0 1 -12 -10 -26z m139
-108 c0 -42 -2 -44 -33 -50 -18 -3 -48 -1 -66 5 -41 15 -35 22 9 9 18 -5 44
-7 57 -4 19 5 23 13 23 45 0 21 2 39 5 39 3 0 5 -20 5 -44z"/>
<path d="M1587 376 c-7 -17 22 -31 36 -17 5 5 6 14 3 20 -10 16 -33 14 -39 -3z"/>
<path d="M2817 383 c-11 -11 -8 -20 9 -27 21 -8 34 1 27 19 -5 16 -25 20 -36
8z"/>
<path d="M1190 250 c0 -83 1 -90 20 -90 18 0 20 7 20 54 0 59 16 86 51 86 12
0 19 7 19 20 0 22 -28 27 -61 10 -13 -7 -19 -7 -19 0 0 5 -7 10 -15 10 -12 0
-15 -17 -15 -90z m89 76 c-2 -2 -15 -9 -29 -15 -24 -11 -24 -11 -6 3 16 13 49
24 35 12z m-68 -83 c-3 -94 -11 -93 -11 2 0 43 3 75 6 72 4 -4 6 -37 5 -74z"/>
<path d="M1387 333 c-11 -3 -16 -10 -13 -20 3 -8 6 -16 6 -19 0 -2 14 -1 32 3
22 4 34 2 42 -9 6 -8 18 -18 26 -21 8 -3 -9 -3 -38 0 -42 4 -56 2 -72 -12 -24
-22 -25 -43 -5 -73 14 -19 24 -21 75 -20 l60 2 0 72 c0 64 -3 75 -22 88 -22
16 -54 19 -91 9z m79 -19 c18 -14 18 -15 -4 -4 -13 7 -36 9 -50 6 -20 -5 -23
-4 -12 4 21 14 43 12 66 -6z m-71 -67 c-12 -10 -16 -22 -13 -40 6 -32 3 -34
-11 -9 -11 21 10 62 31 62 7 0 4 -6 -7 -13z m65 -22 c0 -20 -39 -40 -52 -27
-6 6 -8 18 -5 26 8 20 57 21 57 1z m24 -10 c-4 -8 -10 -15 -15 -15 -4 0 -6 7
-3 15 4 8 10 15 15 15 4 0 6 -7 3 -15z"/>
<path d="M1590 251 c0 -85 1 -91 20 -91 20 0 21 5 18 87 -3 74 -6 88 -20 91
-16 3 -18 -6 -18 -87z m17 -38 c-2 -21 -4 -4 -4 37 0 41 2 58 4 38 2 -21 2
-55 0 -75z"/>
<path d="M1714 325 c-3 -7 -4 -45 -2 -86 3 -68 5 -74 25 -77 21 -3 22 1 25 65
l3 68 30 0 30 0 3 -67 c3 -60 5 -68 22 -68 18 0 20 7 20 70 0 92 -16 110 -96
108 -32 -1 -58 -7 -60 -13z m113 -3 c6 -4 -6 -7 -27 -7 -21 0 -33 3 -27 7 7 4
19 8 27 8 8 0 20 -4 27 -8z m-90 -109 c-2 -21 -4 -4 -4 37 0 41 2 58 4 38 2
-21 2 -55 0 -75z m110 -10 c-2 -16 -4 -3 -4 27 0 30 2 43 4 28 2 -16 2 -40 0
-55z"/>
<path d="M1959 319 c-30 -30 -27 -36 67 -96 17 -10 17 -13 4 -23 -14 -10 -38
-8 -74 6 -11 4 -16 0 -16 -14 0 -24 18 -32 69 -32 64 0 91 50 50 91 -14 14
-28 19 -45 15 -20 -5 -24 -3 -24 15 0 20 4 21 40 15 35 -5 40 -4 40 13 0 36
-77 44 -111 10z m91 0 c12 -8 10 -9 -8 -4 -38 11 -72 -2 -73 -28 -1 -19 -2
-20 -6 -3 -9 36 51 60 87 35z m-9 -69 c10 -6 19 -16 19 -23 0 -8 -3 -9 -8 -1
-4 6 -16 16 -27 22 -25 14 -11 16 16 2z m5 -66 c-11 -8 -29 -14 -40 -14 -16 0
-12 5 14 18 39 20 55 18 26 -4z"/>
<path d="M2183 328 c-12 -6 -27 -25 -33 -43 -23 -68 20 -129 86 -123 27 2 40
8 42 20 3 13 -6 17 -39 20 -37 3 -44 7 -50 30 -10 40 15 70 55 66 22 -2 31 1
31 12 1 30 -48 39 -92 18z m71 -7 c3 -4 -5 -6 -18 -4 -38 8 -69 -30 -64 -77 2
-21 0 -36 -4 -34 -10 6 -10 75 0 90 18 27 75 44 86 25z m-24 -141 c18 -12 2
-12 -25 0 -13 6 -15 9 -5 9 8 0 22 -4 30 -9z"/>
<path d="M2617 333 c-10 -3 -17 -12 -15 -21 3 -13 12 -16 41 -14 28 3 39 -1
44 -14 6 -16 7 -16 14 2 6 16 8 14 8 -9 1 -24 -1 -26 -18 -17 -49 26 -111 0
-111 -47 0 -35 31 -52 93 -52 l57 1 0 69 c0 96 -31 123 -113 102z m70 -11 c6
-4 -10 -7 -35 -8 -32 -1 -41 1 -27 7 26 10 47 10 62 1z m-55 -69 c-23 -9 -35
-43 -20 -61 12 -15 11 -16 -4 -3 -10 7 -18 19 -18 27 0 16 28 44 43 43 8 0 8
-2 -1 -6z m58 -20 c-1 -25 -39 -46 -60 -33 -22 14 -3 40 30 40 16 0 30 -3 30
-7z m20 -19 c0 -14 -4 -23 -9 -20 -5 3 -7 15 -4 26 7 28 13 25 13 -6z m-40
-34 c-8 -5 -19 -10 -25 -10 -5 0 -3 5 5 10 8 5 20 10 25 10 6 0 3 -5 -5 -10z"/>
<path d="M2814 327 c-3 -8 -4 -47 -2 -88 3 -68 5 -74 26 -77 21 -3 22 0 22 65
0 37 -3 78 -6 91 -7 24 -32 30 -40 9z m23 -114 c-2 -21 -4 -4 -4 37 0 41 2 58
4 38 2 -21 2 -55 0 -75z"/>
<path d="M2940 248 c0 -81 2 -88 20 -88 18 0 20 7 20 54 0 72 6 86 41 86 28 0
28 -1 31 -67 3 -62 5 -68 26 -71 21 -3 22 0 22 61 0 50 -5 70 -20 90 -19 23
-27 26 -80 24 l-60 -1 0 -88z m108 76 c12 -4 22 -10 22 -16 0 -5 -9 -4 -20 2
-12 6 -31 8 -43 5 -17 -5 -19 -4 -7 4 18 12 18 13 48 5z m-87 -81 c-3 -94 -11
-93 -11 2 0 43 3 75 7 72 3 -4 5 -37 4 -74z m116 -35 c-2 -18 -4 -6 -4 27 0
33 2 48 4 33 2 -15 2 -42 0 -60z"/>
</g>
</svg>
